<svg data-v-0dd9719b="" version="1.0" xmlns="http://www.w3.org/2000/svg" xmlns:xlink="http://www.w3.org/1999/xlink" width="100%" height="100%" viewBox="0 0 340.000000 250.000000" preserveAspectRatio="xMidYMid meet" color-interpolation-filters="sRGB" style="margin: auto;"> <rect data-v-0dd9719b="" x="0" y="0" width="100%" height="100%" fill="#fff" fill-opacity="1" class="background"></rect> <rect data-v-0dd9719b="" x="0" y="0" width="100%" height="100%" fill="url(#watermark)" fill-opacity="1" class="watermarklayer"></rect> <g data-v-0dd9719b="" fill="#333" class="icon-text-wrapper icon-svg-group iconsvg" transform="translate(48.36500549316406,97.4787483215332)"><g class="iconsvg-imagesvg" transform="translate(0,0.8177928924560547)"><g><rect fill="#333" fill-opacity="0" stroke-width="2" x="0" y="0" width="60" height="53.406916195647334" class="image-rect"></rect> <svg x="0" y="0" width="60" height="53.406916195647334" filtersec="colorsb1487631487" class="image-svg-svg primary" style="overflow: visible;"><svg xmlns="http://www.w3.org/2000/svg" viewBox="0.0000010132789611816406 0 200.92999267578125 178.85134887695312"><path d="M200.75 40.56c-.17-.1-.26-.29-.11-.39s.23.11.29.25a.86.86 0 0 0-.18.14z" fill="#20adee"></path><path d="M85.48 0a60.85 60.85 0 0 0 1.62 17.94c2.25 8.88 7.37 15.7 14.71 21 5.67 4.09 12 7 18.15 10.22s12.33 6.41 17.78 10.84a49.35 49.35 0 0 1 16.17 23.62 50.67 50.67 0 0 1 2.56 21.7 45.68 45.68 0 0 1-6.31 18.58 46.74 46.74 0 0 1-19.95 18.47c-16.88 8.07-32.93 6.38-48-4.66a32.89 32.89 0 0 1-6.91-6.59c1.32.42 2.64.85 4 1.25a65 65 0 0 0 24.7 3c10.44-.88 19.84-4.28 27.4-11.82 7.8-7.77 10.53-17.24 9.14-28a32.71 32.71 0 0 0-9.68-19.3c-4.35-4.39-9.49-7.67-14.7-10.86-4.44-2.72-9-5.24-13.37-8.07-5.91-3.81-11.37-8.16-15.37-14.08a35 35 0 0 1-5.72-16.4c-.72-7.2.39-14.2 2.1-21.16A37.24 37.24 0 0 1 85.48 0z" fill="#6bbb47"></path><path d="M192.68 160.25c-2.63-1.32-5.09-3-7.75-4.24-6.28-3-12.81-4.91-19.84-4.64-6.71.25-12.81 2.55-18.64 5.71s-11 6.82-16.46 10.29c-6.36 4-12.91 7.69-20.24 9.73-9.57 2.67-19.06 2.15-28.53-.63-11.46-3.38-20.59-9.91-27-20-10.62-16.78-10-39.66 3.23-55.25a46.37 46.37 0 0 1 21.16-14A41.46 41.46 0 0 1 84 85.73c0 .63-.48.79-.78 1a67.3 67.3 0 0 0-16.37 20.41c-5 9.84-7.06 20.14-4.17 31 2.46 9.3 8.11 16.05 16.63 20.51 10.23 5.35 20.52 4.93 30.92.56 6.38-2.69 12.31-6.24 18.34-9.6 6.5-3.61 13.08-7 20.44-8.63 9.47-2 18.27-.19 26.54 4.68a77.22 77.22 0 0 1 16.6 13.76 8.12 8.12 0 0 1 .52.74z" fill="#f37422"></path><path d="M118.6 116.89c-.67-3.13-1.24-5.88-2-8.56-3.15-10.67-8.19-20.22-16.62-27.68-7.49-6.65-16.12-10.38-26.27-9.93-7.7.35-14.25 3.54-20 8.42-6.83 5.76-10.2 13.36-11.52 22-1 6.85-1 13.77-1 20.68A95.69 95.69 0 0 1 39.47 141c-2.76 13.12-10.93 21.65-22.84 27.05a89.25 89.25 0 0 1-15.92 5.29.64.64 0 0 1-.71-.09c1.82-1.06 3.63-2.05 5.38-3.14 6.91-4.29 12.78-9.59 16.42-17a42.33 42.33 0 0 0 3.94-17.4c.27-7.49-.54-14.94-.74-22.41-.19-7 .08-14 1.94-20.81 2.89-10.56 9-19 17.21-26a45.61 45.61 0 0 1 21.49-10.32 46.85 46.85 0 0 1 27.44 3 45.66 45.66 0 0 1 22.34 19.57 44.27 44.27 0 0 1 5.63 26.34 51.42 51.42 0 0 1-1.93 10.36c-.12.4-.25.73-.52 1.45z" fill="#ed564d"></path></svg></svg> <!----></g></g> <g transform="translate(67,0)"><g data-gra="path-name" fill-rule="" class="tp-name iconsvg-namesvg" transform="translate(0,0)"><g transform="scale(1)"><g><path d="M42.21-3.73Q42.21-0.72 41.83 0.97 41.45 2.65 40.45 3.44 39.46 4.23 37.66 4.23L37.66 4.23 32.63 4.23Q32.71 3.06 32.71 2.48L32.71 2.48Q32.71 0.85 32.27-0.67L32.27-0.67Q31.63 1.89 30.33 4.54L30.33 4.54Q26.55 3.06 22.59 3.06L22.59 3.06Q22.81 2.7 23.18 1.98L23.18 1.98 12.33 1.98 12.33-9.72Q10.98-2.83 9.4 4.23L9.4 4.23Q5.85 3.01 1.75 2.79L1.75 2.79 2.29 0.9Q3.6-3.96 4.43-7.22 5.26-10.48 5.85-13.72L5.85-13.72 12.33-12.6 12.33-18.04Q10.44-16.61 8.82-13.95L8.82-13.95 1.57-20.2 6.66-25.43 13.95-19.39 15.48-19.39 15.48-22.95 12.33-22.95 12.33-28.89Q10.84-27.09 9.86-24.66L9.86-24.66 1.93-30.06 6.48-35.55 14.13-30.64 15.48-30.64 15.48-35.23 22.63-35.23 22.63-30.64 26.14-30.64 26.14-22.95 22.63-22.95 22.63-19.39 25.74-19.39 25.74-5.17Q27.04-11.12 27.04-20.52L27.04-20.52 27.04-34.38 42.21-34.38 42.21-3.73ZM33.66-17.14Q33.66-15.12 33.62-14.22L33.62-14.22 35.68-14.22 35.68-17.14 33.66-17.14ZM32.8-3.19Q34.52-3.15 34.99-3.26 35.46-3.38 35.59-4 35.73-4.63 35.73-6.61L35.73-6.61 35.73-7.02 33.25-7.02Q33.16-5.35 32.8-3.19L32.8-3.19ZM33.7-24.34L35.68-24.34 35.68-27 33.7-27 33.7-24.34ZM18.22-11.7L18.22-5.4 19.75-5.4 19.75-11.7 18.22-11.7ZM64.53-35.19L64.48 4.09 56.43 4.09 56.43-1.75 48.65 1.71Q48.78-0.54 48.26-2.61 47.74-4.68 46.71-6.39L46.71-6.39 56.43-10.04 56.48-17.86 47.66-17.86 47.66-25.96 56.48-25.96 56.48-35.19 64.53-35.19ZM80.01-12.15Q80.95-11.56 83.61-11.25 86.27-10.93 87.75-10.98L87.75-10.98 87.57 0.54Q87.53 2.34 86.74 3.04 85.95 3.73 83.79 3.73L83.79 3.73 71.37 3.73Q70.25 3.73 69.34 2.92 68.44 2.11 68.44 0.63L68.44 0.63 68.44-35.14 76.55-35.14 76.55-23.76Q80.01-26.5 83.7-29.83L83.7-29.83 88.83-23.27Q81.59-17.32 76.55-13.81L76.55-13.81 76.55-5.04Q76.55-4.23 76.91-4 77.27-3.78 78.21-3.78L78.21-3.78 78.66-3.78Q79.56-3.78 79.78-4.05 80.01-4.32 80.01-5.44L80.01-5.44 80.01-12.15ZM118.94-5.58Q121.28-4.14 124.69-3.58 128.12-3.01 133.65-2.65L133.65-2.65Q131.76 0.94 131.31 4.41L131.31 4.41Q126.18 4.46 120.87 3.01 115.56 1.57 111.91-1.48L111.91-1.48Q108.67 1.62 103.93 3.04 99.18 4.46 94.28 4.41L94.28 4.41Q93.83 0.94 91.94-2.65L91.94-2.65Q97.25-2.88 100.28-3.46 103.32-4.05 105.16-5.58L105.16-5.58 92.92-5.58 92.92-12.24 105.93-12.24Q104.58-14.08 103.21-15.03 101.83-15.97 99.5-16.61L99.5-16.61Q102.06-18.9 103.23-20.9 104.4-22.9 104.72-26.14L104.72-26.14 99.86-26.14 103.86-23.45Q102.73-21.46 101.39-19.84 100.03-18.22 97.78-15.84L97.78-15.84 96.48-14.45Q95.63-15.88 94.39-16.94 93.15-18 91.22-19.04L91.22-19.04Q93.47-21.24 94.7-22.59 95.94-23.94 97.61-26.14L97.61-26.14 92.56-26.14 92.56-33.39 107.82-33.39 107.23-35.14 116.69-35.37Q117-34.34 117.18-33.39L117.18-33.39 132.66-33.39 132.66-26.14 122.13-26.14 122.13-23.13 125.37-26.05Q127.26-24.48 130.14-21.78L130.14-21.78Q130.72-21.24 131.56-20.43 132.39-19.62 133.74-18.45L133.74-18.45Q130.91-16.7 128.7-13.05L128.7-13.05Q125.23-16.61 122.13-19.39L122.13-19.39 122.13-19.35Q122.13-17.19 121.07-16.06 120.02-14.94 118.66-14.63L118.66-14.63Q118.08-14.49 113.63-14.49L113.63-14.49 111.56-14.49Q111.6-15.39 111.49-16.85 111.38-18.31 111.15-19.53L111.15-19.53Q110.38-17.73 109.24-16.11 108.09-14.49 106.16-12.24L106.16-12.24 108.05-12.24Q108.13-13.41 108.13-14.13L108.13-14.13 116.82-14.13Q116.82-13.5 116.73-12.24L116.73-12.24 132.12-12.24 132.12-5.58 118.94-5.58ZM112.63-26.14Q112.36-23.13 111.73-21.15L111.73-21.15 112.09-21.15Q113.98-21.15 114.41-21.8 114.84-22.45 114.82-23.45 114.8-24.43 114.8-24.79L114.8-24.79 114.8-26.14 112.63-26.14ZM161.55-7.33L161.55 3.78 153.45 3.78 153.45-7.33 137.38-7.33 137.38-15.34 144.99-15.34 144.22-16.47Q143.19-18 142.13-19.48 141.07-20.97 139.5-22.95L139.5-22.95 144.99-26.32 138.42-26.32 138.42-34.34 176.67-34.34 176.67-26.32 169.74-26.32 175.23-22.95Q173.16-20.25 171.09-17.28L171.09-17.28 169.74-15.34 177.84-15.34 177.84-7.33 161.55-7.33ZM153.45-26.32L146.34-26.32Q150.3-21.38 152.1-18.9L152.1-18.9Q149.58-18.36 146.34-15.34L146.34-15.34 153.45-15.34 153.45-26.32ZM168.48-15.34Q167.04-16.74 165.51-17.66 163.98-18.59 162.63-18.9L162.63-18.9Q166.28-23.4 168.44-26.32L168.44-26.32 161.55-26.32 161.55-15.34 168.48-15.34Z" transform="translate(-1.5699999332427979, 35.54999923706055)"></path></g> <!----> <!----> <!----> <!----> <!----> <!----> <!----></g></g> <g data-gra="path-slogan" fill-rule="" class="tp-slogan iconsvg-slogansvg" fill="#333" transform="translate(5,46.09000015258789)"><rect x="0" height="1" y="3.9750003814697266" width="40.829994201660156"></rect> <rect height="1" y="3.9750003814697266" width="40.829994201660156" x="125.43999481201172"></rect> <g transform="translate(43.829994201660156,0)"><g transform="scale(1)"><path d="M2.06-5.06L6.56-5.06L6.56-8.58L7.73-8.58L7.73 0L6.56 0L6.56-3.98L2.06-3.98L2.06 0L0.89 0L0.89-8.58L2.06-8.58L2.06-5.06ZM15.19-3.19L15.19-8.58L16.36-8.58L16.36-3.05Q16.22 0.05 12.84 0.14L12.84 0.14Q9.70 0.05 9.56-2.86L9.56-2.86L9.56-8.58L10.73-8.58L10.73-3.19Q10.78-0.84 12.89-0.80L12.89-0.80Q15.19-0.84 15.19-3.19L15.19-3.19ZM21.38-7.64L19.31-7.64L19.31-4.97L21.38-4.97Q23.20-4.92 23.16-6.38L23.16-6.38Q23.16-7.64 21.38-7.64L21.38-7.64ZM21.84 0L18.14 0L18.14-8.58L21.94-8.58Q24.23-8.48 24.33-6.42L24.33-6.42Q24.33-5.16 23.20-4.64L23.20-4.64Q24.80-4.08 24.80-2.53L24.80-2.53Q24.66-0.09 21.84 0L21.84 0ZM21.56-3.98L19.31-3.98L19.31-0.98L21.80-0.98Q23.58-1.03 23.63-2.53L23.63-2.53Q23.63-3.98 21.56-3.98L21.56-3.98ZM27.42-1.03L32.58-1.03L32.58 0L26.25 0L26.25-8.58L32.48-8.58L32.48-7.59L27.42-7.59L27.42-4.92L32.11-4.92L32.11-3.89L27.42-3.89L27.42-1.03ZM34.27-8.58L35.44-8.58L35.44 0L34.27 0L34.27-8.58ZM47.67-8.58L44.44-3.47L44.44 0L43.27 0L43.27-3.47L40.03-8.58L41.39-8.58L43.83-4.45L46.31-8.58L47.67-8.58ZM48.89-8.58L50.06-8.58L50.06 0L48.89 0L48.89-8.58ZM55.69-7.64L53.34-7.64L53.34-4.64L55.64-4.64Q57.42-4.64 57.42-6.19L57.42-6.19Q57.42-7.59 55.69-7.64L55.69-7.64ZM56.06-3.61L53.34-3.61L53.34 0L52.17 0L52.17-8.58L56.06-8.58Q58.50-8.48 58.59-6.19L58.59-6.19Q58.45-3.70 56.06-3.61L56.06-3.61ZM60.19-8.58L61.36-8.58L61.36 0L60.19 0L60.19-8.58ZM64.73-8.58L69.05-1.64L69.05-8.58L70.17-8.58L70.17 0L68.86 0L64.50-6.94L64.45-6.94L64.45 0L63.33 0L63.33-8.58L64.73-8.58ZM78.38-3.61L75.75-3.61L75.75-4.59L79.50-4.59L79.50 0L78.75 0L78.47-1.08Q77.48 0.09 75.66 0.14L75.66 0.14Q73.92 0.14 72.98-0.75L72.98-0.75Q71.58-2.06 71.63-4.36L71.63-4.36Q71.95-8.63 75.70-8.81L75.70-8.81Q78.89-8.63 79.36-6L79.36-6L78.23-6Q77.77-7.78 75.66-7.83L75.66-7.83Q72.98-7.64 72.84-4.31L72.84-4.31Q72.84-0.75 75.70-0.75L75.70-0.75Q76.73-0.75 77.48-1.31L77.48-1.31Q78.42-2.06 78.38-3.61L78.38-3.61Z" transform="translate(-0.890625, 8.8125)"></path></g></g></g></g></g><defs v-gra="od"></defs></svg>